<?xml version="1.0" encoding="UTF-8"?>
<svg width="25px" height="25px" viewBox="0 0 25 25" version="1.1" xmlns="http://www.w3.org/2000/svg" xmlns:xlink="http://www.w3.org/1999/xlink">
    <!-- Generator: Sketch 50.2 (55047) - http://www.bohemiancoding.com/sketch -->
    <title>Group</title>
    <desc>Created with Sketch.</desc>
    <defs></defs>
    <g id="Symbols" stroke="none" stroke-width="1" fill="none" fill-rule="evenodd">
        <g id="wizard/completed">
            <g id="Group">
                <circle id="Oval" fill="#7ED321" cx="12.5" cy="12.5" r="12.5"></circle>
                <path d="M20.717097,8.71538953 C20.717097,8.98045681 20.6110701,9.24552409 20.4202217,9.43637253 L11.3019072,18.554687 C11.1110588,18.7455354 10.8459915,18.8515623 10.5809242,18.8515623 C10.3158569,18.8515623 10.0507897,18.7455354 9.85994121,18.554687 L4.57980099,13.2745467 C4.38895255,13.0836983 4.28292564,12.818631 4.28292564,12.5535637 C4.28292564,12.2884965 4.38895255,12.0234292 4.57980099,11.8325807 L6.021767,10.3906147 C6.21261544,10.1997663 6.47768272,10.0937394 6.74275,10.0937394 C7.00781728,10.0937394 7.27288456,10.1997663 7.463733,10.3906147 L10.5809242,13.5184086 L17.5362897,6.55244052 C17.7271381,6.36159208 17.9922054,6.25556516 18.2572727,6.25556516 C18.5223399,6.25556516 18.7874072,6.36159208 18.9782557,6.55244052 L20.4202217,7.99440652 C20.6110701,8.18525496 20.717097,8.45032225 20.717097,8.71538953 Z" id="Check---FontAwesome" fill="#FFFFFF"></path>
            </g>
        </g>
    </g>
</svg>