<?xml version="1.0" encoding="UTF-8"?>
<svg width="47px" height="11px" viewBox="0 0 47 11" version="1.1" xmlns="http://www.w3.org/2000/svg" xmlns:xlink="http://www.w3.org/1999/xlink">
    <!-- Generator: Sketch 50.2 (55047) - http://www.bohemiancoding.com/sketch -->
    <title>Group 9</title>
    <desc>Created with Sketch.</desc>
    <defs></defs>
    <g id="28/05" stroke="none" stroke-width="1" fill="none" fill-rule="evenodd">
        <g id="01-SignatureApprovalScreen-SELL-Copy-3" transform="translate(-59.000000, -471.000000)">
            <g id="Group-8" transform="translate(16.000000, 471.000000)">
                <g id="Group-4">
                    <g id="Group-9" transform="translate(43.000000, 0.000000)">
                        <path d="M7.58659158,10.128657 L6.07664256,10.128657 L6.07664256,9.17500496 L6.05015223,9.17500496 C5.82939834,9.54587149 5.52255505,9.82843222 5.12961314,10.0226956 C4.73667122,10.2169591 4.31503763,10.3140893 3.86469971,10.3140893 C3.37904116,10.3140893 2.94416253,10.2235816 2.56005077,10.0425634 C2.17593902,9.8615452 1.84922817,9.61871957 1.57990843,9.31407921 C1.31058869,9.00943885 1.10308315,8.65182293 0.957385591,8.2412207 C0.811688027,7.83061848 0.738840338,7.39132484 0.738840338,6.9233266 C0.738840338,6.45532837 0.813895533,6.01824224 0.964008174,5.61205509 C1.11412082,5.20586794 1.32604136,4.85266703 1.59977618,4.55244175 C1.873511,4.25221646 2.20022184,4.01601335 2.57991852,3.84382532 C2.95961521,3.67163729 3.37462628,3.58554457 3.8249642,3.58554457 C4.11635933,3.58554457 4.37684501,3.61865715 4.60642905,3.68488332 C4.83601309,3.75110948 5.03689611,3.8327872 5.20908414,3.92991891 C5.38127217,4.02705061 5.52917505,4.13301089 5.65279722,4.24780291 C5.7764194,4.36259493 5.87796466,4.47297021 5.95743606,4.57893208 L5.99717156,4.57893208 L5.99717156,0.115310864 L7.58659158,0.115310864 L7.58659158,10.128657 Z M2.35475069,6.9233266 C2.35475069,7.17057095 2.39227829,7.4178116 2.46733461,7.66505595 C2.54239093,7.9123003 2.65497372,8.13305087 2.80508636,8.32731429 C2.955199,8.5215777 3.14504449,8.68051812 3.37462853,8.80414029 C3.60421257,8.92776247 3.87352827,8.98957263 4.18258371,8.98957263 C4.47397884,8.98957263 4.73446451,8.92996997 4.96404855,8.81076287 C5.19363259,8.69155578 5.3901006,8.53482287 5.55345847,8.34055945 C5.71681635,8.14629603 5.84043667,7.92775297 5.92432314,7.6849237 C6.00820962,7.44209442 6.05015223,7.19706129 6.05015223,6.94981694 C6.05015223,6.70257259 6.00820962,6.45533195 5.92432314,6.2080876 C5.84043667,5.96084325 5.71681635,5.74009267 5.55345847,5.54582926 C5.3901006,5.35156584 5.19363259,5.19262543 4.96404855,5.06900325 C4.73446451,4.94538108 4.47397884,4.88357092 4.18258371,4.88357092 C3.87352827,4.88357092 3.60421257,4.94317357 3.37462853,5.06238067 C3.14504449,5.18158776 2.955199,5.33832067 2.80508636,5.53258409 C2.65497372,5.72684751 2.54239093,5.94539057 2.46733461,6.18821985 C2.39227829,6.43104912 2.35475069,6.67608225 2.35475069,6.9233266 Z M13.9972523,6.31404893 C13.9972523,6.11095536 13.9685547,5.91669485 13.9111587,5.73126159 C13.8537627,5.54582833 13.763255,5.3824729 13.6396328,5.24119042 C13.5160106,5.09990793 13.3592777,4.98732514 13.1694294,4.90343867 C12.979581,4.81955219 12.756623,4.77760958 12.5005485,4.77760958 C12.0237201,4.77760958 11.6197465,4.92109745 11.2886157,5.2080775 C10.9574849,5.49505755 10.7742619,5.86371101 10.7389413,6.31404893 L13.9972523,6.31404893 Z M15.5866723,7.02928794 L15.5866723,7.24121061 C15.5866723,7.31185185 15.5822573,7.38249203 15.5734272,7.45313328 L10.7389413,7.45313328 C10.7566016,7.68271732 10.8162042,7.89243036 10.917751,8.0822787 C11.0192978,8.27212704 11.1539557,8.43548246 11.3217286,8.57234987 C11.4895016,8.70921728 11.6793471,8.81738506 11.8912708,8.89685646 C12.1031945,8.97632786 12.3239451,9.01606296 12.5535291,9.01606296 C12.9508861,9.01606296 13.286427,8.94321527 13.5601618,8.79751771 C13.8338966,8.65182014 14.0590622,8.45093712 14.2356653,8.19486262 L15.2952787,9.04255329 C14.6683376,9.89024821 13.7588453,10.3140893 12.5667743,10.3140893 C12.0722856,10.3140893 11.6175394,10.2368266 11.2025221,10.0822989 C10.7875048,9.92777117 10.4276814,9.7092281 10.123041,9.42666313 C9.81840066,9.14409816 9.57999004,8.79751976 9.40780202,8.38691754 C9.23561399,7.97631531 9.14952126,7.5105316 9.14952126,6.98955244 C9.14952126,6.47740343 9.23561399,6.01161972 9.40780202,5.59218734 C9.57999004,5.17275496 9.81619316,4.81513903 10.1164184,4.51932883 C10.4166437,4.22351862 10.7720521,3.99393803 11.1826544,3.83058015 C11.5932566,3.66722228 12.0369652,3.58554457 12.5137936,3.58554457 C12.9553014,3.58554457 13.36369,3.65839226 13.7389716,3.80408982 C14.1142532,3.94978738 14.4387565,4.16612294 14.7124913,4.45310299 C14.9862261,4.74008304 15.2003542,5.09769897 15.3548819,5.52596151 C15.5094096,5.95422404 15.5866723,6.45532784 15.5866723,7.02928794 Z M18.6065704,6.75113944 L16.3151565,3.7709769 L18.2224605,3.7709769 L19.5999579,5.74450676 L21.0171907,3.7709769 L22.8450237,3.7709769 L20.5668551,6.75113944 L23.1629077,10.128657 L21.2291134,10.128657 L19.5734675,7.81075278 L17.9045765,10.128657 L16.0237628,10.128657 L18.6065704,6.75113944 Z M30.566956,10.128657 L29.057007,10.128657 L29.057007,9.17500496 L29.0305166,9.17500496 C28.8097628,9.54587149 28.5029195,9.82843222 28.1099775,10.0226956 C27.7170356,10.2169591 27.295402,10.3140893 26.8450641,10.3140893 C26.3594056,10.3140893 25.9245269,10.2235816 25.5404152,10.0425634 C25.1563034,9.8615452 24.8295926,9.61871957 24.5602728,9.31407921 C24.2909531,9.00943885 24.0834476,8.65182293 23.93775,8.2412207 C23.7920524,7.83061848 23.7192048,7.39132484 23.7192048,6.9233266 C23.7192048,6.45532837 23.7942599,6.01824224 23.9443726,5.61205509 C24.0944852,5.20586794 24.3064058,4.85266703 24.5801406,4.55244175 C24.8538754,4.25221646 25.1805863,4.01601335 25.5602829,3.84382532 C25.9399796,3.67163729 26.3549907,3.58554457 26.8053286,3.58554457 C27.0967237,3.58554457 27.3572094,3.61865715 27.5867935,3.68488332 C27.8163775,3.75110948 28.0172605,3.8327872 28.1894486,3.92991891 C28.3616366,4.02705061 28.5095395,4.13301089 28.6331616,4.24780291 C28.7567838,4.36259493 28.8583291,4.47297021 28.9378005,4.57893208 L28.977536,4.57893208 L28.977536,0.115310864 L30.566956,0.115310864 L30.566956,10.128657 Z M25.3351151,6.9233266 C25.3351151,7.17057095 25.3726427,7.4178116 25.447699,7.66505595 C25.5227553,7.9123003 25.6353381,8.13305087 25.7854508,8.32731429 C25.9355634,8.5215777 26.1254089,8.68051812 26.3549929,8.80414029 C26.584577,8.92776247 26.8538927,8.98957263 27.1629481,8.98957263 C27.4543432,8.98957263 27.7148289,8.92996997 27.944413,8.81076287 C28.173997,8.69155578 28.370465,8.53482287 28.5338229,8.34055945 C28.6971808,8.14629603 28.8208011,7.92775297 28.9046876,7.6849237 C28.988574,7.44209442 29.0305166,7.19706129 29.0305166,6.94981694 C29.0305166,6.70257259 28.988574,6.45533195 28.9046876,6.2080876 C28.8208011,5.96084325 28.6971808,5.74009267 28.5338229,5.54582926 C28.370465,5.35156584 28.173997,5.19262543 27.944413,5.06900325 C27.7148289,4.94538108 27.4543432,4.88357092 27.1629481,4.88357092 C26.8538927,4.88357092 26.584577,4.94317357 26.3549929,5.06238067 C26.1254089,5.18158776 25.9355634,5.33832067 25.7854508,5.53258409 C25.6353381,5.72684751 25.5227553,5.94539057 25.447699,6.18821985 C25.3726427,6.43104912 25.3351151,6.67608225 25.3351151,6.9233266 Z M36.9776167,6.31404893 C36.9776167,6.11095536 36.9489192,5.91669485 36.8915231,5.73126159 C36.8341271,5.54582833 36.7436194,5.3824729 36.6199972,5.24119042 C36.496375,5.09990793 36.3396421,4.98732514 36.1497938,4.90343867 C35.9599455,4.81955219 35.7369874,4.77760958 35.4809129,4.77760958 C35.0040845,4.77760958 34.6001109,4.92109745 34.2689801,5.2080775 C33.9378493,5.49505755 33.7546263,5.86371101 33.7193057,6.31404893 L36.9776167,6.31404893 Z M38.5670367,7.02928794 L38.5670367,7.24121061 C38.5670367,7.31185185 38.5626217,7.38249203 38.5537916,7.45313328 L33.7193057,7.45313328 C33.736966,7.68271732 33.7965687,7.89243036 33.8981154,8.0822787 C33.9996622,8.27212704 34.1343201,8.43548246 34.302093,8.57234987 C34.469866,8.70921728 34.6597115,8.81738506 34.8716352,8.89685646 C35.0835589,8.97632786 35.3043095,9.01606296 35.5338935,9.01606296 C35.9312505,9.01606296 36.2667914,8.94321527 36.5405262,8.79751771 C36.814261,8.65182014 37.0394266,8.45093712 37.2160297,8.19486262 L38.2756431,9.04255329 C37.648702,9.89024821 36.7392097,10.3140893 35.5471387,10.3140893 C35.05265,10.3140893 34.5979038,10.2368266 34.1828865,10.0822989 C33.7678692,9.92777117 33.4080458,9.7092281 33.1034054,9.42666313 C32.7987651,9.14409816 32.5603545,8.79751976 32.3881664,8.38691754 C32.2159784,7.97631531 32.1298857,7.5105316 32.1298857,6.98955244 C32.1298857,6.47740343 32.2159784,6.01161972 32.3881664,5.59218734 C32.5603545,5.17275496 32.7965576,4.81513903 33.0967829,4.51932883 C33.3970081,4.22351862 33.7524166,3.99393803 34.1630188,3.83058015 C34.573621,3.66722228 35.0173297,3.58554457 35.494158,3.58554457 C35.9356658,3.58554457 36.3440544,3.65839226 36.719336,3.80408982 C37.0946176,3.94978738 37.4191209,4.16612294 37.6928557,4.45310299 C37.9665906,4.74008304 38.1807186,5.09769897 38.3352463,5.52596151 C38.489774,5.95422404 38.5670367,6.45532784 38.5670367,7.02928794 Z" id="dexdex" fill="#1C2A46"></path>
                        <polygon id="Path-2-Copy" fill="#1C2A46" opacity="0.900000036" transform="translate(43.963303, 6.959584) scale(-1, 1) translate(-43.963303, -6.959584) " points="42.1029905 3.79313693 43.9358641 3.79313693 46.137268 6.75944968 43.6945969 10.1260316 41.7893379 10.1260316 44.3779059 6.75944968"></polygon>
                        <polygon id="Path-2" fill="#349FFF" opacity="0.900000036" points="39.3173339 3.78284737 41.2108698 3.78284737 43.3280119 6.76144616 40.8941458 10.1097526 39.0344476 10.1097526 41.5994161 6.76144616"></polygon>
                    </g>
                </g>
            </g>
        </g>
    </g>
</svg>