<?xml version="1.0" encoding="UTF-8"?>
<svg width="51px" height="12px" viewBox="0 0 51 12" version="1.1" xmlns="http://www.w3.org/2000/svg" xmlns:xlink="http://www.w3.org/1999/xlink">
    <!-- Generator: Sketch 50.2 (55047) - http://www.bohemiancoding.com/sketch -->
    <title>Group 7</title>
    <desc>Created with Sketch.</desc>
    <defs></defs>
    <g id="24/04" stroke="none" stroke-width="1" fill="none" fill-rule="evenodd">
        <g id="new-tooltips" transform="translate(-79.000000, -611.000000)">
            <g id="Group-9" transform="translate(-508.000000, 20.000000)">
                <g id="Group-8" transform="translate(529.000000, 591.000000)">
                    <g id="Group-4">
                        <g id="Group-7" transform="translate(58.000000, 0.000000)">
                            <path d="M8.16428571,11.1428571 L6.50314286,11.1428571 L6.50314286,10.0937143 L6.474,10.0937143 C6.23114164,10.5017163 5.89357359,10.8125704 5.46128571,11.0262857 C5.02899784,11.2400011 4.56514533,11.3468571 4.06971429,11.3468571 C3.5354259,11.3468571 3.05700211,11.2472867 2.63442857,11.0481429 C2.21185503,10.848999 1.85243005,10.5818588 1.55614286,10.2467143 C1.25985566,9.91156975 1.03157223,9.51814512 0.871285714,9.06642857 C0.710999199,8.61471203 0.630857143,8.13143115 0.630857143,7.61657143 C0.630857143,7.10171171 0.713427746,6.62085938 0.878571429,6.174 C1.04371511,5.72714062 1.27685564,5.33857308 1.578,5.00828571 C1.87914436,4.67799835 2.23856934,4.4181438 2.65628571,4.22871429 C3.07400209,4.03928477 3.53056895,3.94457143 4.026,3.94457143 C4.34657303,3.94457143 4.63314159,3.98099964 4.88571429,4.05385714 C5.13828698,4.12671465 5.35928477,4.21657089 5.54871429,4.32342857 C5.7381438,4.43028625 5.90085646,4.54685651 6.03685714,4.67314286 C6.17285782,4.7994292 6.28457099,4.92085656 6.372,5.03742857 L6.41571429,5.03742857 L6.41571429,0.126857143 L8.16428571,0.126857143 L8.16428571,11.1428571 Z M2.40857143,7.61657143 C2.40857143,7.88857279 2.44985673,8.16057007 2.53242857,8.43257143 C2.61500041,8.70457279 2.73885632,8.9474275 2.904,9.16114286 C3.06914368,9.37485821 3.27799874,9.54971361 3.53057143,9.68571429 C3.78314412,9.82171497 4.07942687,9.88971429 4.41942857,9.88971429 C4.7400016,9.88971429 5.02657017,9.82414351 5.27914286,9.693 C5.53171555,9.56185649 5.74785624,9.38942964 5.92757143,9.17571429 C6.10728661,8.96199893 6.24328525,8.72157276 6.33557143,8.45442857 C6.4278576,8.18728438 6.474,7.91771565 6.474,7.64571429 C6.474,7.37371293 6.4278576,7.10171565 6.33557143,6.82971429 C6.24328525,6.55771293 6.10728661,6.31485821 5.92757143,6.10114286 C5.74785624,5.8874275 5.53171555,5.71257211 5.27914286,5.57657143 C5.02657017,5.44057075 4.7400016,5.37257143 4.41942857,5.37257143 C4.07942687,5.37257143 3.78314412,5.4381422 3.53057143,5.56928571 C3.27799874,5.70042923 3.06914368,5.87285607 2.904,6.08657143 C2.73885632,6.30028678 2.61500041,6.54071295 2.53242857,6.80785714 C2.44985673,7.07500134 2.40857143,7.34457007 2.40857143,7.61657143 Z M15.2168571,6.94628571 C15.2168571,6.72285603 15.185286,6.50914388 15.1221429,6.30514286 C15.0589997,6.10114184 14.9594293,5.92142935 14.8234286,5.766 C14.6874279,5.61057065 14.515001,5.48671475 14.3061429,5.39442857 C14.0972847,5.3021424 13.8520014,5.256 13.5702857,5.256 C13.0457117,5.256 12.6012875,5.41385556 12.237,5.72957143 C11.8727125,6.04528729 11.6711431,6.45085467 11.6322857,6.94628571 L15.2168571,6.94628571 Z M16.9654286,7.73314286 L16.9654286,7.96628571 C16.9654286,8.04400039 16.9605715,8.1217139 16.9508571,8.19942857 L11.6322857,8.19942857 C11.6517144,8.45200126 11.7172852,8.68271324 11.829,8.89157143 C11.9407148,9.10042962 12.0888562,9.2801421 12.2734286,9.43071429 C12.4580009,9.58128647 12.666856,9.70028528 12.9,9.78771429 C13.133144,9.87514329 13.3759987,9.91885714 13.6285714,9.91885714 C14.0657165,9.91885714 14.4348556,9.83871509 14.736,9.67842857 C15.0371444,9.51814206 15.2848562,9.29714427 15.4791429,9.01542857 L16.6448571,9.948 C15.9551394,10.8805761 14.954578,11.3468571 13.6431429,11.3468571 C13.0991401,11.3468571 12.5988594,11.261858 12.1422857,11.0918571 C11.685712,10.9218563 11.2898588,10.6814301 10.9547143,10.3705714 C10.6195698,10.0597127 10.3572867,9.67843083 10.1678571,9.22671429 C9.97842762,8.77499774 9.88371429,8.26257429 9.88371429,7.68942857 C9.88371429,7.12599718 9.97842762,6.61357374 10.1678571,6.15214286 C10.3572867,5.69071198 10.6171412,5.29728734 10.9474286,4.97185714 C11.2777159,4.64642694 11.668712,4.39385804 12.1204286,4.21414286 C12.5721451,4.03442767 13.0602831,3.94457143 13.5848571,3.94457143 C14.0705739,3.94457143 14.5198551,4.02471348 14.9327143,4.185 C15.3455735,4.34528652 15.7025699,4.58328414 16.0037143,4.899 C16.3048586,5.21471586 16.5404277,5.6081405 16.7104286,6.07928571 C16.8804294,6.55043093 16.9654286,7.10171113 16.9654286,7.73314286 Z M20.2877143,7.42714286 L17.7668571,4.14857143 L19.8651429,4.14857143 L21.3805714,6.31971429 L22.9397143,4.14857143 L24.9505714,4.14857143 L22.4442857,7.42714286 L25.3002857,11.1428571 L23.1728571,11.1428571 L21.3514286,8.59285714 L19.5154286,11.1428571 L17.4462857,11.1428571 L20.2877143,7.42714286 Z M33.4457143,11.1428571 L31.7845714,11.1428571 L31.7845714,10.0937143 L31.7554286,10.0937143 C31.5125702,10.5017163 31.1750022,10.8125704 30.7427143,11.0262857 C30.3104264,11.2400011 29.8465739,11.3468571 29.3511429,11.3468571 C28.8168545,11.3468571 28.3384307,11.2472867 27.9158571,11.0481429 C27.4932836,10.848999 27.1338586,10.5818588 26.8375714,10.2467143 C26.5412842,9.91156975 26.3130008,9.51814512 26.1527143,9.06642857 C25.9924278,8.61471203 25.9122857,8.13143115 25.9122857,7.61657143 C25.9122857,7.10171171 25.9948563,6.62085938 26.16,6.174 C26.3251437,5.72714062 26.5582842,5.33857308 26.8594286,5.00828571 C27.1605729,4.67799835 27.5199979,4.4181438 27.9377143,4.22871429 C28.3554307,4.03928477 28.8119975,3.94457143 29.3074286,3.94457143 C29.6280016,3.94457143 29.9145702,3.98099964 30.1671429,4.05385714 C30.4197155,4.12671465 30.6407133,4.21657089 30.8301429,4.32342857 C31.0195724,4.43028625 31.182285,4.54685651 31.3182857,4.67314286 C31.4542864,4.7994292 31.5659996,4.92085656 31.6534286,5.03742857 L31.6971429,5.03742857 L31.6971429,0.126857143 L33.4457143,0.126857143 L33.4457143,11.1428571 Z M27.69,7.61657143 C27.69,7.88857279 27.7312853,8.16057007 27.8138571,8.43257143 C27.896429,8.70457279 28.0202849,8.9474275 28.1854286,9.16114286 C28.3505723,9.37485821 28.5594273,9.54971361 28.812,9.68571429 C29.0645727,9.82171497 29.3608554,9.88971429 29.7008571,9.88971429 C30.0214302,9.88971429 30.3079987,9.82414351 30.5605714,9.693 C30.8131441,9.56185649 31.0292848,9.38942964 31.209,9.17571429 C31.3887152,8.96199893 31.5247138,8.72157276 31.617,8.45442857 C31.7092862,8.18728438 31.7554286,7.91771565 31.7554286,7.64571429 C31.7554286,7.37371293 31.7092862,7.10171565 31.617,6.82971429 C31.5247138,6.55771293 31.3887152,6.31485821 31.209,6.10114286 C31.0292848,5.8874275 30.8131441,5.71257211 30.5605714,5.57657143 C30.3079987,5.44057075 30.0214302,5.37257143 29.7008571,5.37257143 C29.3608554,5.37257143 29.0645727,5.4381422 28.812,5.56928571 C28.5594273,5.70042923 28.3505723,5.87285607 28.1854286,6.08657143 C28.0202849,6.30028678 27.896429,6.54071295 27.8138571,6.80785714 C27.7312853,7.07500134 27.69,7.34457007 27.69,7.61657143 Z M40.4982857,6.94628571 C40.4982857,6.72285603 40.4667146,6.50914388 40.4035714,6.30514286 C40.3404283,6.10114184 40.2408578,5.92142935 40.1048571,5.766 C39.9688565,5.61057065 39.7964296,5.48671475 39.5875714,5.39442857 C39.3787132,5.3021424 39.13343,5.256 38.8517143,5.256 C38.3271402,5.256 37.8827161,5.41385556 37.5184286,5.72957143 C37.154141,6.04528729 36.9525716,6.45085467 36.9137143,6.94628571 L40.4982857,6.94628571 Z M42.2468571,7.73314286 L42.2468571,7.96628571 C42.2468571,8.04400039 42.242,8.1217139 42.2322857,8.19942857 L36.9137143,8.19942857 C36.933143,8.45200126 36.9987137,8.68271324 37.1104286,8.89157143 C37.2221434,9.10042962 37.3702848,9.2801421 37.5548571,9.43071429 C37.7394295,9.58128647 37.9482845,9.70028528 38.1814286,9.78771429 C38.4145726,9.87514329 38.6574273,9.91885714 38.91,9.91885714 C39.347145,9.91885714 39.7162842,9.83871509 40.0174286,9.67842857 C40.3185729,9.51814206 40.5662847,9.29714427 40.7605714,9.01542857 L41.9262857,9.948 C41.236568,10.8805761 40.2360066,11.3468571 38.9245714,11.3468571 C38.3805687,11.3468571 37.880288,11.261858 37.4237143,11.0918571 C36.9671406,10.9218563 36.5712874,10.6814301 36.2361429,10.3705714 C35.9009983,10.0597127 35.6387152,9.67843083 35.4492857,9.22671429 C35.2598562,8.77499774 35.1651429,8.26257429 35.1651429,7.68942857 C35.1651429,7.12599718 35.2598562,6.61357374 35.4492857,6.15214286 C35.6387152,5.69071198 35.8985698,5.29728734 36.2288571,4.97185714 C36.5591445,4.64642694 36.9501406,4.39385804 37.4018571,4.21414286 C37.8535737,4.03442767 38.3417117,3.94457143 38.8662857,3.94457143 C39.3520024,3.94457143 39.8012836,4.02471348 40.2141429,4.185 C40.6270021,4.34528652 40.9839985,4.58328414 41.2851429,4.899 C41.5862872,5.21471586 41.8218563,5.6081405 41.9918571,6.07928571 C42.161858,6.55043093 42.2468571,7.10171113 42.2468571,7.73314286 Z" id="dexdex" fill="#1C2A46"></path>
                            <polygon id="Path-2-Copy" fill="#1C2A46" opacity="0.900000036" transform="translate(48.183461, 7.656460) scale(-1, 1) translate(-48.183461, -7.656460) " points="46.1368722 4.17295038 48.1532746 4.17295038 50.5751089 7.43628522 47.8878488 11.1399689 45.791813 11.1399689 48.6395788 7.43628522"></polygon>
                            <polygon id="Path-2" fill="#349FFF" opacity="0.900000036" points="43.0722828 4.1616305 45.1554219 4.1616305 47.4845571 7.43848162 44.8069837 11.1220599 42.7610707 11.1220599 45.582874 7.43848162"></polygon>
                        </g>
                    </g>
                </g>
            </g>
        </g>
    </g>
</svg>