<?xml version="1.0" encoding="UTF-8"?>
<svg width="109px" height="14px" viewBox="0 0 109 14" version="1.1" xmlns="http://www.w3.org/2000/svg" xmlns:xlink="http://www.w3.org/1999/xlink">
    <!-- Generator: Sketch 49.2 (51160) - http://www.bohemiancoding.com/sketch -->
    <title>Group 4</title>
    <desc>Created with Sketch.</desc>
    <defs></defs>
    <g id="24/04" stroke="none" stroke-width="1" fill="none" fill-rule="evenodd">
        <g id="new" transform="translate(-21.000000, -611.000000)">
            <g id="Group-4" transform="translate(21.000000, 611.000000)">
                <g id="Group-9">
                    <g id="Group-10">
                        <path d="M5.5078125,5.94140625 C5.5078125,6.66406611 5.26123293,7.21988738 4.76806641,7.60888672 C4.27489988,7.99788606 3.56934053,8.19238281 2.65136719,8.19238281 L1.81152344,8.19238281 L1.81152344,11 L0.981445312,11 L0.981445312,3.86132812 L2.83203125,3.86132812 C4.61589434,3.86132812 5.5078125,4.55468057 5.5078125,5.94140625 Z M1.81152344,7.47949219 L2.55859375,7.47949219 C3.29427451,7.47949219 3.82649575,7.36067827 4.15527344,7.12304688 C4.48405112,6.88541548 4.6484375,6.50455991 4.6484375,5.98046875 C4.6484375,5.50846118 4.49381665,5.1569022 4.18457031,4.92578125 C3.87532397,4.6946603 3.39355796,4.57910156 2.73925781,4.57910156 L1.81152344,4.57910156 L1.81152344,7.47949219 Z M11.4990234,8.31933594 C11.4990234,9.19173613 11.2792991,9.87288167 10.8398437,10.362793 C10.4003884,10.8527043 9.79329814,11.0976562 9.01855469,11.0976562 C8.54003667,11.0976562 8.11523623,10.9853527 7.74414062,10.7607422 C7.37304502,10.5361317 7.08658955,10.2138693 6.88476562,9.79394531 C6.6829417,9.37402134 6.58203125,8.88248979 6.58203125,8.31933594 C6.58203125,7.44693574 6.80012803,6.7674178 7.23632812,6.28076172 C7.67252822,5.79410564 8.27799092,5.55078125 9.05273437,5.55078125 C9.80143604,5.55078125 10.3963194,5.7998022 10.8374023,6.29785156 C11.2784853,6.79590093 11.4990234,7.46972231 11.4990234,8.31933594 Z M7.421875,8.31933594 C7.421875,9.00293311 7.55859238,9.52376123 7.83203125,9.88183594 C8.10547012,10.2399106 8.50748433,10.4189453 9.03808594,10.4189453 C9.56868755,10.4189453 9.97151555,10.2407244 10.246582,9.88427734 C10.5216485,9.52783025 10.6591797,9.00618833 10.6591797,8.31933594 C10.6591797,7.63899399 10.5216485,7.12223484 10.246582,6.76904297 C9.97151555,6.4158511 9.56543237,6.23925781 9.02832031,6.23925781 C8.4977187,6.23925781 8.09733208,6.41340972 7.82714844,6.76171875 C7.55696479,7.11002778 7.421875,7.62922832 7.421875,8.31933594 Z M17.0898438,11 L16.1083984,7.86035156 C16.0465492,7.66829331 15.9309904,7.23209976 15.7617187,6.55175781 L15.7226562,6.55175781 C15.5924473,7.12142212 15.4785161,7.56087085 15.3808594,7.87011719 L14.3701172,11 L13.4326172,11 L11.9726562,5.6484375 L12.8222656,5.6484375 C13.1673194,6.99284526 13.4301749,8.01659805 13.6108398,8.71972656 C13.7915048,9.42285508 13.8948566,9.89648315 13.9208984,10.140625 L13.9599609,10.140625 C13.9957684,9.9550772 14.0535478,9.71500798 14.1333008,9.42041016 C14.2130538,9.12581233 14.2822263,8.89225347 14.3408203,8.71972656 L15.3222656,5.6484375 L16.2011719,5.6484375 L17.1582031,8.71972656 C17.3404957,9.2796252 17.4641924,9.7499981 17.5292969,10.1308594 L17.5683594,10.1308594 C17.5813803,10.0136713 17.6163734,9.83300903 17.6733398,9.58886719 C17.7303063,9.34472534 18.0696583,8.03126191 18.6914062,5.6484375 L19.53125,5.6484375 L18.0517578,11 L17.0898438,11 Z M22.7587891,11.0976562 C21.9677695,11.0976562 21.3435895,10.8567732 20.8862305,10.375 C20.4288714,9.89322676 20.2001953,9.22428813 20.2001953,8.36816406 C20.2001953,7.50552954 20.4125955,6.82031504 20.8374023,6.3125 C21.2622092,5.80468496 21.8326787,5.55078125 22.5488281,5.55078125 C23.2194044,5.55078125 23.749998,5.77131941 24.140625,6.21240234 C24.531252,6.65348528 24.7265625,7.23534795 24.7265625,7.95800781 L24.7265625,8.47070312 L21.0400391,8.47070312 C21.0563152,9.09896147 21.215005,9.57584473 21.5161133,9.90136719 C21.8172216,10.2268896 22.2412082,10.3896484 22.7880859,10.3896484 C23.3642607,10.3896484 23.9339165,10.2692069 24.4970703,10.0283203 L24.4970703,10.7509766 C24.2106105,10.8746751 23.9396172,10.9633786 23.684082,11.0170898 C23.4285469,11.070801 23.120119,11.0976562 22.7587891,11.0976562 Z M22.5390625,6.22949219 C22.1093729,6.22949219 21.7667656,6.36946475 21.5112305,6.64941406 C21.2556953,6.92936338 21.1051435,7.3167293 21.0595703,7.81152344 L23.8574219,7.81152344 C23.8574219,7.30045317 23.7434907,6.90901829 23.515625,6.63720703 C23.2877593,6.36539578 22.9622417,6.22949219 22.5390625,6.22949219 Z M28.5498047,5.55078125 C28.7874361,5.55078125 29.0006501,5.5703123 29.1894531,5.609375 L29.0771484,6.36132812 C28.8557932,6.31249976 28.6604826,6.28808594 28.4912109,6.28808594 C28.0582661,6.28808594 27.6879898,6.46386543 27.3803711,6.81542969 C27.0727524,7.16699395 26.9189453,7.60481509 26.9189453,8.12890625 L26.9189453,11 L26.1083984,11 L26.1083984,5.6484375 L26.7773437,5.6484375 L26.8701172,6.63964844 L26.9091797,6.63964844 C27.1077484,6.2913394 27.3470038,6.0227874 27.6269531,5.83398438 C27.9069024,5.64518135 28.2145166,5.55078125 28.5498047,5.55078125 Z M32.2509766,11.0976562 C31.459957,11.0976562 30.835777,10.8567732 30.378418,10.375 C29.9210589,9.89322676 29.6923828,9.22428813 29.6923828,8.36816406 C29.6923828,7.50552954 29.904783,6.82031504 30.3295898,6.3125 C30.7543967,5.80468496 31.3248662,5.55078125 32.0410156,5.55078125 C32.7115919,5.55078125 33.2421855,5.77131941 33.6328125,6.21240234 C34.0234395,6.65348528 34.21875,7.23534795 34.21875,7.95800781 L34.21875,8.47070312 L30.5322266,8.47070312 C30.5485027,9.09896147 30.7071925,9.57584473 31.0083008,9.90136719 C31.3094091,10.2268896 31.7333957,10.3896484 32.2802734,10.3896484 C32.8564482,10.3896484 33.426104,10.2692069 33.9892578,10.0283203 L33.9892578,10.7509766 C33.702798,10.8746751 33.4318047,10.9633786 33.1762695,11.0170898 C32.9207344,11.070801 32.6123065,11.0976562 32.2509766,11.0976562 Z M32.03125,6.22949219 C31.6015604,6.22949219 31.2589531,6.36946475 31.003418,6.64941406 C30.7478828,6.92936338 30.597331,7.3167293 30.5517578,7.81152344 L33.3496094,7.81152344 C33.3496094,7.30045317 33.2356782,6.90901829 33.0078125,6.63720703 C32.7799468,6.36539578 32.4544292,6.22949219 32.03125,6.22949219 Z M39.2431641,10.2822266 L39.1992188,10.2822266 C38.8248679,10.8258491 38.2649777,11.0976562 37.5195312,11.0976562 C36.819658,11.0976562 36.2752298,10.8584008 35.8862305,10.3798828 C35.4972311,9.90136479 35.3027344,9.22103306 35.3027344,8.33886719 C35.3027344,7.45670132 35.4980449,6.77148682 35.8886719,6.28320312 C36.2792988,5.79491943 36.8229132,5.55078125 37.5195312,5.55078125 C38.2454463,5.55078125 38.8020814,5.81445049 39.1894531,6.34179688 L39.2529297,6.34179688 L39.21875,5.95605469 L39.1992188,5.58007812 L39.1992188,3.40234375 L40.0097656,3.40234375 L40.0097656,11 L39.3505859,11 L39.2431641,10.2822266 Z M37.6220703,10.4189453 C38.1754585,10.4189453 38.5766589,10.2683934 38.8256836,9.96728516 C39.0747083,9.66617688 39.1992188,9.18034189 39.1992188,8.50976562 L39.1992188,8.33886719 C39.1992188,7.58039985 39.0730807,7.03922688 38.8208008,6.71533203 C38.5685209,6.39143718 38.1656929,6.22949219 37.6123047,6.22949219 C37.1370419,6.22949219 36.773276,6.41422341 36.5209961,6.78369141 C36.2687162,7.1531594 36.1425781,7.67480132 36.1425781,8.34863281 C36.1425781,9.03222998 36.2679024,9.54817534 36.5185547,9.89648438 C36.769207,10.2447934 37.1370418,10.4189453 37.6220703,10.4189453 Z M46.8164062,5.56054688 C47.5195348,5.56054688 48.0655905,5.80061609 48.4545898,6.28076172 C48.8435892,6.76090735 49.0380859,7.44042529 49.0380859,8.31933594 C49.0380859,9.19824658 48.8419616,9.8810197 48.449707,10.3676758 C48.0574525,10.8543319 47.5130243,11.0976562 46.8164062,11.0976562 C46.4680972,11.0976562 46.1499038,11.0333665 45.8618164,10.9047852 C45.573729,10.7762038 45.3320322,10.5784519 45.1367187,10.3115234 L45.078125,10.3115234 L44.9072266,11 L44.3261719,11 L44.3261719,3.40234375 L45.1367187,3.40234375 L45.1367187,5.24804688 C45.1367187,5.6614604 45.123698,6.03255044 45.0976562,6.36132812 L45.1367187,6.36132812 C45.5143248,5.82747129 46.074215,5.56054688 46.8164062,5.56054688 Z M46.6992187,6.23925781 C46.1458306,6.23925781 45.7470715,6.39794763 45.5029297,6.71533203 C45.2587878,7.03271643 45.1367187,7.56737905 45.1367187,8.31933594 C45.1367187,9.07129282 45.262043,9.60921062 45.5126953,9.93310547 C45.7633476,10.2570003 46.1653618,10.4189453 46.71875,10.4189453 C47.2167994,10.4189453 47.5878894,10.2374693 47.8320312,9.87451172 C48.0761731,9.51155417 48.1982422,8.98991226 48.1982422,8.30957031 C48.1982422,7.61295225 48.0761731,7.09375171 47.8320312,6.75195312 C47.5878894,6.41015454 47.210289,6.23925781 46.6992187,6.23925781 Z M49.4042969,5.6484375 L50.2734375,5.6484375 L51.4453125,8.70019531 C51.7024752,9.39681338 51.8619789,9.89973804 51.9238281,10.2089844 L51.9628906,10.2089844 C52.0052085,10.0429679 52.0939121,9.75895383 52.2290039,9.35693359 C52.3640957,8.95491335 52.8059858,7.71876035 53.5546875,5.6484375 L54.4238281,5.6484375 L52.1240234,11.7421875 C51.8961577,12.3444041 51.6300471,12.7716459 51.3256836,13.0239258 C51.0213201,13.2762057 50.6477887,13.4023438 50.2050781,13.4023438 C49.9576811,13.4023438 49.7135429,13.3746748 49.4726562,13.3193359 L49.4726562,12.6699219 C49.6516936,12.7089846 49.8518869,12.7285156 50.0732422,12.7285156 C50.6298856,12.7285156 51.027017,12.4160187 51.2646484,11.7910156 L51.5625,11.0292969 L49.4042969,5.6484375 Z" id="Powered-by" fill="#4A4A4A"></path>
                        <g id="Group-7" transform="translate(58.000000, 0.000000)" fill="#349FFF" opacity="0.900000036">
                            <polygon id="Path-2" points="43.0722828 4.1616305 45.1554219 4.1616305 47.4845571 7.43848162 44.8069837 11.1220599 42.7610707 11.1220599 45.582874 7.43848162"></polygon>
                        </g>
                    </g>
                    <path d="M66.1642857,11.1428571 L64.5031429,11.1428571 L64.5031429,10.0937143 L64.474,10.0937143 C64.2311416,10.5017163 63.8935736,10.8125704 63.4612857,11.0262857 C63.0289978,11.2400011 62.5651453,11.3468571 62.0697143,11.3468571 C61.5354259,11.3468571 61.0570021,11.2472867 60.6344286,11.0481429 C60.211855,10.848999 59.8524301,10.5818588 59.5561429,10.2467143 C59.2598557,9.91156975 59.0315722,9.51814512 58.8712857,9.06642857 C58.7109992,8.61471203 58.6308571,8.13143115 58.6308571,7.61657143 C58.6308571,7.10171171 58.7134277,6.62085938 58.8785714,6.174 C59.0437151,5.72714062 59.2768556,5.33857308 59.578,5.00828571 C59.8791444,4.67799835 60.2385693,4.4181438 60.6562857,4.22871429 C61.0740021,4.03928477 61.530569,3.94457143 62.026,3.94457143 C62.346573,3.94457143 62.6331416,3.98099964 62.8857143,4.05385714 C63.138287,4.12671465 63.3592848,4.21657089 63.5487143,4.32342857 C63.7381438,4.43028625 63.9008565,4.54685651 64.0368571,4.67314286 C64.1728578,4.7994292 64.284571,4.92085656 64.372,5.03742857 L64.4157143,5.03742857 L64.4157143,0.126857143 L66.1642857,0.126857143 L66.1642857,11.1428571 Z M60.4085714,7.61657143 C60.4085714,7.88857279 60.4498567,8.16057007 60.5324286,8.43257143 C60.6150004,8.70457279 60.7388563,8.9474275 60.904,9.16114286 C61.0691437,9.37485821 61.2779987,9.54971361 61.5305714,9.68571429 C61.7831441,9.82171497 62.0794269,9.88971429 62.4194286,9.88971429 C62.7400016,9.88971429 63.0265702,9.82414351 63.2791429,9.693 C63.5317155,9.56185649 63.7478562,9.38942964 63.9275714,9.17571429 C64.1072866,8.96199893 64.2432853,8.72157276 64.3355714,8.45442857 C64.4278576,8.18728438 64.474,7.91771565 64.474,7.64571429 C64.474,7.37371293 64.4278576,7.10171565 64.3355714,6.82971429 C64.2432853,6.55771293 64.1072866,6.31485821 63.9275714,6.10114286 C63.7478562,5.8874275 63.5317155,5.71257211 63.2791429,5.57657143 C63.0265702,5.44057075 62.7400016,5.37257143 62.4194286,5.37257143 C62.0794269,5.37257143 61.7831441,5.4381422 61.5305714,5.56928571 C61.2779987,5.70042923 61.0691437,5.87285607 60.904,6.08657143 C60.7388563,6.30028678 60.6150004,6.54071295 60.5324286,6.80785714 C60.4498567,7.07500134 60.4085714,7.34457007 60.4085714,7.61657143 Z M73.2168571,6.94628571 C73.2168571,6.72285603 73.185286,6.50914388 73.1221429,6.30514286 C73.0589997,6.10114184 72.9594293,5.92142935 72.8234286,5.766 C72.6874279,5.61057065 72.515001,5.48671475 72.3061429,5.39442857 C72.0972847,5.3021424 71.8520014,5.256 71.5702857,5.256 C71.0457117,5.256 70.6012875,5.41385556 70.237,5.72957143 C69.8727125,6.04528729 69.6711431,6.45085467 69.6322857,6.94628571 L73.2168571,6.94628571 Z M74.9654286,7.73314286 L74.9654286,7.96628571 C74.9654286,8.04400039 74.9605715,8.1217139 74.9508571,8.19942857 L69.6322857,8.19942857 C69.6517144,8.45200126 69.7172852,8.68271324 69.829,8.89157143 C69.9407148,9.10042962 70.0888562,9.2801421 70.2734286,9.43071429 C70.4580009,9.58128647 70.666856,9.70028528 70.9,9.78771429 C71.133144,9.87514329 71.3759987,9.91885714 71.6285714,9.91885714 C72.0657165,9.91885714 72.4348556,9.83871509 72.736,9.67842857 C73.0371444,9.51814206 73.2848562,9.29714427 73.4791429,9.01542857 L74.6448571,9.948 C73.9551394,10.8805761 72.954578,11.3468571 71.6431429,11.3468571 C71.0991401,11.3468571 70.5988594,11.261858 70.1422857,11.0918571 C69.685712,10.9218563 69.2898588,10.6814301 68.9547143,10.3705714 C68.6195698,10.0597127 68.3572867,9.67843083 68.1678571,9.22671429 C67.9784276,8.77499774 67.8837143,8.26257429 67.8837143,7.68942857 C67.8837143,7.12599718 67.9784276,6.61357374 68.1678571,6.15214286 C68.3572867,5.69071198 68.6171412,5.29728734 68.9474286,4.97185714 C69.2777159,4.64642694 69.668712,4.39385804 70.1204286,4.21414286 C70.5721451,4.03442767 71.0602831,3.94457143 71.5848571,3.94457143 C72.0705739,3.94457143 72.5198551,4.02471348 72.9327143,4.185 C73.3455735,4.34528652 73.7025699,4.58328414 74.0037143,4.899 C74.3048586,5.21471586 74.5404277,5.6081405 74.7104286,6.07928571 C74.8804294,6.55043093 74.9654286,7.10171113 74.9654286,7.73314286 Z M78.2877143,7.42714286 L75.7668571,4.14857143 L77.8651429,4.14857143 L79.3805714,6.31971429 L80.9397143,4.14857143 L82.9505714,4.14857143 L80.4442857,7.42714286 L83.3002857,11.1428571 L81.1728571,11.1428571 L79.3514286,8.59285714 L77.5154286,11.1428571 L75.4462857,11.1428571 L78.2877143,7.42714286 Z M91.4457143,11.1428571 L89.7845714,11.1428571 L89.7845714,10.0937143 L89.7554286,10.0937143 C89.5125702,10.5017163 89.1750022,10.8125704 88.7427143,11.0262857 C88.3104264,11.2400011 87.8465739,11.3468571 87.3511429,11.3468571 C86.8168545,11.3468571 86.3384307,11.2472867 85.9158571,11.0481429 C85.4932836,10.848999 85.1338586,10.5818588 84.8375714,10.2467143 C84.5412842,9.91156975 84.3130008,9.51814512 84.1527143,9.06642857 C83.9924278,8.61471203 83.9122857,8.13143115 83.9122857,7.61657143 C83.9122857,7.10171171 83.9948563,6.62085938 84.16,6.174 C84.3251437,5.72714062 84.5582842,5.33857308 84.8594286,5.00828571 C85.1605729,4.67799835 85.5199979,4.4181438 85.9377143,4.22871429 C86.3554307,4.03928477 86.8119975,3.94457143 87.3074286,3.94457143 C87.6280016,3.94457143 87.9145702,3.98099964 88.1671429,4.05385714 C88.4197155,4.12671465 88.6407133,4.21657089 88.8301429,4.32342857 C89.0195724,4.43028625 89.182285,4.54685651 89.3182857,4.67314286 C89.4542864,4.7994292 89.5659996,4.92085656 89.6534286,5.03742857 L89.6971429,5.03742857 L89.6971429,0.126857143 L91.4457143,0.126857143 L91.4457143,11.1428571 Z M85.69,7.61657143 C85.69,7.88857279 85.7312853,8.16057007 85.8138571,8.43257143 C85.896429,8.70457279 86.0202849,8.9474275 86.1854286,9.16114286 C86.3505723,9.37485821 86.5594273,9.54971361 86.812,9.68571429 C87.0645727,9.82171497 87.3608554,9.88971429 87.7008571,9.88971429 C88.0214302,9.88971429 88.3079987,9.82414351 88.5605714,9.693 C88.8131441,9.56185649 89.0292848,9.38942964 89.209,9.17571429 C89.3887152,8.96199893 89.5247138,8.72157276 89.617,8.45442857 C89.7092862,8.18728438 89.7554286,7.91771565 89.7554286,7.64571429 C89.7554286,7.37371293 89.7092862,7.10171565 89.617,6.82971429 C89.5247138,6.55771293 89.3887152,6.31485821 89.209,6.10114286 C89.0292848,5.8874275 88.8131441,5.71257211 88.5605714,5.57657143 C88.3079987,5.44057075 88.0214302,5.37257143 87.7008571,5.37257143 C87.3608554,5.37257143 87.0645727,5.4381422 86.812,5.56928571 C86.5594273,5.70042923 86.3505723,5.87285607 86.1854286,6.08657143 C86.0202849,6.30028678 85.896429,6.54071295 85.8138571,6.80785714 C85.7312853,7.07500134 85.69,7.34457007 85.69,7.61657143 Z M98.4982857,6.94628571 C98.4982857,6.72285603 98.4667146,6.50914388 98.4035714,6.30514286 C98.3404283,6.10114184 98.2408578,5.92142935 98.1048571,5.766 C97.9688565,5.61057065 97.7964296,5.48671475 97.5875714,5.39442857 C97.3787132,5.3021424 97.13343,5.256 96.8517143,5.256 C96.3271402,5.256 95.8827161,5.41385556 95.5184286,5.72957143 C95.154141,6.04528729 94.9525716,6.45085467 94.9137143,6.94628571 L98.4982857,6.94628571 Z M100.246857,7.73314286 L100.246857,7.96628571 C100.246857,8.04400039 100.242,8.1217139 100.232286,8.19942857 L94.9137143,8.19942857 C94.933143,8.45200126 94.9987137,8.68271324 95.1104286,8.89157143 C95.2221434,9.10042962 95.3702848,9.2801421 95.5548571,9.43071429 C95.7394295,9.58128647 95.9482845,9.70028528 96.1814286,9.78771429 C96.4145726,9.87514329 96.6574273,9.91885714 96.91,9.91885714 C97.347145,9.91885714 97.7162842,9.83871509 98.0174286,9.67842857 C98.3185729,9.51814206 98.5662847,9.29714427 98.7605714,9.01542857 L99.9262857,9.948 C99.236568,10.8805761 98.2360066,11.3468571 96.9245714,11.3468571 C96.3805687,11.3468571 95.880288,11.261858 95.4237143,11.0918571 C94.9671406,10.9218563 94.5712874,10.6814301 94.2361429,10.3705714 C93.9009983,10.0597127 93.6387152,9.67843083 93.4492857,9.22671429 C93.2598562,8.77499774 93.1651429,8.26257429 93.1651429,7.68942857 C93.1651429,7.12599718 93.2598562,6.61357374 93.4492857,6.15214286 C93.6387152,5.69071198 93.8985698,5.29728734 94.2288571,4.97185714 C94.5591445,4.64642694 94.9501406,4.39385804 95.4018571,4.21414286 C95.8535737,4.03442767 96.3417117,3.94457143 96.8662857,3.94457143 C97.3520024,3.94457143 97.8012836,4.02471348 98.2141429,4.185 C98.6270021,4.34528652 98.9839985,4.58328414 99.2851429,4.899 C99.5862872,5.21471586 99.8218563,5.6081405 99.9918571,6.07928571 C100.161858,6.55043093 100.246857,7.10171113 100.246857,7.73314286 Z" id="dexdex" fill="#1C2A46"></path>
                    <polygon id="Path-2-Copy" fill="#1C2A46" opacity="0.900000036" transform="translate(106.183461, 7.656460) scale(-1, 1) translate(-106.183461, -7.656460) " points="104.136872 4.17295038 106.153275 4.17295038 108.575109 7.43628522 105.887849 11.1399689 103.791813 11.1399689 106.639579 7.43628522"></polygon>
                </g>
            </g>
        </g>
    </g>
</svg>