<?xml version="1.0" encoding="UTF-8"?>
<svg width="61px" height="56px" viewBox="0 0 61 56" version="1.1" xmlns="http://www.w3.org/2000/svg" xmlns:xlink="http://www.w3.org/1999/xlink">
    <!-- Generator: Sketch 50.2 (55047) - http://www.bohemiancoding.com/sketch -->
    <title>Group 3</title>
    <desc>Created with Sketch.</desc>
    <defs></defs>
    <g id="28/05" stroke="none" stroke-width="1" fill="none" fill-rule="evenodd">
        <g id="20-Error-Screen-BUY" transform="translate(-158.000000, -147.000000)">
            <g id="Group-3" transform="translate(156.000000, 143.000000)">
                <path d="M36.4579626,50.2740385 L36.4579626,43.8798077 C36.4579626,43.2740385 35.9868087,42.7692308 35.3810395,42.7692308 L28.919501,42.7692308 C28.3137318,42.7692308 27.842578,43.2740385 27.842578,43.8798077 L27.842578,50.2740385 C27.842578,50.8798077 28.3137318,51.3846154 28.919501,51.3846154 L35.3810395,51.3846154 C35.9868087,51.3846154 36.4579626,50.8798077 36.4579626,50.2740385 Z M36.3906549,37.6875 L36.9964241,22.2403846 C36.9964241,22.0384615 36.8954626,21.7692308 36.6598857,21.6009615 C36.4579626,21.4326923 36.155078,21.2307692 35.8521934,21.2307692 L28.4483472,21.2307692 C28.1454626,21.2307692 27.842578,21.4326923 27.6406549,21.6009615 C27.405078,21.7692308 27.3041164,22.1057692 27.3041164,22.3076923 L27.8762318,37.6875 C27.8762318,38.125 28.3810395,38.4615385 29.0204626,38.4615385 L35.2464241,38.4615385 C35.8521934,38.4615385 36.357001,38.125 36.3906549,37.6875 Z M35.919501,6.25480769 L61.7656549,53.6394231 C62.5060395,54.9519231 62.4723857,56.5673077 61.6983472,57.8798077 C60.9243087,59.1923077 59.5108472,60 57.9964241,60 L6.30411643,60 C4.78969335,60 3.37623182,59.1923077 2.60219335,57.8798077 C1.82815489,56.5673077 1.79450105,54.9519231 2.53488566,53.6394231 L28.3810395,6.25480769 C29.1214241,4.875 30.5685395,4 32.1502703,4 C33.732001,4 35.1791164,4.875 35.919501,6.25480769 Z" id="exclamation-triangle---FontAwesome" fill="#D0021B"></path>
                <rect id="Rectangle-5" x="0" y="0" width="64" height="64"></rect>
            </g>
        </g>
    </g>
</svg>