<?xml version="1.0" encoding="UTF-8"?>
<svg width="30px" height="23px" viewBox="0 0 30 23" version="1.1" xmlns="http://www.w3.org/2000/svg" xmlns:xlink="http://www.w3.org/1999/xlink">
    <!-- Generator: Sketch 50.2 (55047) - http://www.bohemiancoding.com/sketch -->
    <title>Exchange - FontAwesome</title>
    <desc>Created with Sketch.</desc>
    <defs></defs>
    <g id="Symbols" stroke="none" stroke-width="1" fill="none" fill-rule="evenodd">
        <g id="exchange" transform="translate(-135.000000, -135.000000)" fill="#000000">
            <g id="Group-3" transform="translate(0.000000, 126.000000)">
                <path d="M165.000036,24.1071358 L165.000036,27.3214254 C165.000036,27.6060239 164.748919,27.8571403 164.464321,27.8571403 L141.428579,27.8571403 L141.428579,31.0714298 C141.428579,31.3560284 141.194204,31.6071448 140.892864,31.6071448 C140.742194,31.6071448 140.608266,31.5401804 140.491078,31.4397339 L135.15067,26.0825846 C135.050223,25.9821381 135,25.8482093 135,25.7142806 C135,25.5636108 135.050223,25.4296821 135.15067,25.3292355 L140.507819,19.9720863 C140.608266,19.8716397 140.758935,19.8214164 140.892864,19.8214164 C141.177463,19.8214164 141.428579,20.0557917 141.428579,20.3571314 L141.428579,23.5714209 L164.464321,23.5714209 C164.748919,23.5714209 165.000036,23.8057962 165.000036,24.1071358 Z M165.000036,14.9999821 C165.000036,15.1339108 164.949812,15.2845807 164.849366,15.3850272 L159.492217,20.7421765 C159.39177,20.842623 159.2411,20.8928463 159.107172,20.8928463 C158.822573,20.8928463 158.571457,20.6417299 158.571457,20.3571314 L158.571457,17.1428418 L135.535715,17.1428418 C135.251116,17.1428418 135,16.8917254 135,16.6071269 L135,13.3928373 C135,13.1082388 135.251116,12.8571224 135.535715,12.8571224 L158.571457,12.8571224 L158.571457,9.64283288 C158.571457,9.34149323 158.805832,9.10711795 159.107172,9.10711795 C159.257841,9.10711795 159.39177,9.17408232 159.508958,9.27452886 L164.849366,14.614937 C164.949812,14.7153836 165.000036,14.8660534 165.000036,14.9999821 Z" id="Exchange---FontAwesome"></path>
            </g>
        </g>
    </g>
</svg>