<?xml version="1.0" encoding="UTF-8"?>
<svg width="20px" height="18px" viewBox="0 0 20 18" version="1.1" xmlns="http://www.w3.org/2000/svg" xmlns:xlink="http://www.w3.org/1999/xlink">
    <!-- Generator: Sketch 50.2 (55047) - http://www.bohemiancoding.com/sketch -->
    <title>external-link - FontAwesome</title>
    <desc>Created with Sketch.</desc>
    <defs></defs>
    <g id="28/05" stroke="none" stroke-width="1" fill="none" fill-rule="evenodd">
        <path d="M15.7143044,11.2142776 L15.7143044,14.7857105 C15.7143044,16.5602661 14.2745706,18 12.5000149,18 L3.21428955,18 C1.43973386,18 0,16.5602661 0,14.7857105 L0,5.4999851 C0,3.72542941 1.43973386,2.28569555 3.21428955,2.28569555 L11.0714418,2.28569555 C11.2723349,2.28569555 11.4285851,2.44194574 11.4285851,2.64283884 L11.4285851,3.3571254 C11.4285851,3.5580185 11.2723349,3.71426868 11.0714418,3.71426868 L3.21428955,3.71426868 C2.23214552,3.71426868 1.42857313,4.51784107 1.42857313,5.4999851 L1.42857313,14.7857105 C1.42857313,15.7678545 2.23214552,16.5714269 3.21428955,16.5714269 L12.5000149,16.5714269 C13.4821589,16.5714269 14.2857313,15.7678545 14.2857313,14.7857105 L14.2857313,11.2142776 C14.2857313,11.0133845 14.4419815,10.8571343 14.6428746,10.8571343 L15.3571612,10.8571343 C15.5580543,10.8571343 15.7143044,11.0133845 15.7143044,11.2142776 Z M20.0000238,1.57140899 L20.0000238,7.28570151 C20.0000238,7.67632698 19.6763627,7.99998808 19.2857373,7.99998808 C19.0960049,7.99998808 18.9174333,7.92186299 18.7835045,7.78793425 L16.8192165,5.8236462 L9.54242209,13.1004406 C9.47545772,13.167405 9.37501118,13.2120479 9.28572536,13.2120479 C9.19643953,13.2120479 9.09599299,13.167405 9.02902862,13.1004406 L7.75670568,11.8281176 C7.68974131,11.7611533 7.6450984,11.6607067 7.6450984,11.5714209 C7.6450984,11.4821351 7.68974131,11.3816885 7.75670568,11.3147242 L15.0335001,4.03792978 L13.069212,2.07364173 C12.9352833,1.939713 12.8571582,1.76114136 12.8571582,1.57140899 C12.8571582,1.18078352 13.1808193,0.857122421 13.5714447,0.857122421 L19.2857373,0.857122421 C19.6763627,0.857122421 20.0000238,1.18078352 20.0000238,1.57140899 Z" id="external-link---FontAwesome" fill="#112244"></path>
    </g>
</svg>