<?xml version="1.0" encoding="UTF-8"?>
<svg width="35px" height="56px" viewBox="0 0 35 56" version="1.1" xmlns="http://www.w3.org/2000/svg" xmlns:xlink="http://www.w3.org/1999/xlink">
    <!-- Generator: Sketch 50.2 (55047) - http://www.bohemiancoding.com/sketch -->
    <title>Group 2</title>
    <desc>Created with Sketch.</desc>
    <defs></defs>
    <g id="28/05" stroke="none" stroke-width="1" fill="none" fill-rule="evenodd">
        <g id="19-Rejected-Signature-BUY" transform="translate(-160.000000, -147.000000)">
            <g id="Group-2" transform="translate(145.000000, 143.000000)">
                <rect id="Rectangle-5" x="0" y="0" width="64" height="64"></rect>
                <path d="M20.8034188,27.3931624 C19.168083,27.3931624 17.7920284,26.8347634 16.6752137,25.7179487 C15.558399,24.601134 15,23.2051366 15,21.5299145 C15,19.8148062 15.558399,18.4287802 16.6752137,17.3717949 C17.7920284,16.3148095 19.168083,15.7863248 20.8034188,15.7863248 C22.4387546,15.7863248 23.8148092,16.3148095 24.9316239,17.3717949 C26.0484386,18.4287802 26.6068376,19.8148062 26.6068376,21.5299145 C26.6068376,23.2051366 26.0484386,24.601134 24.9316239,25.7179487 C23.8148092,26.8347634 22.4387546,27.3931624 20.8034188,27.3931624 Z M20.8034188,48.8717949 C19.168083,48.8717949 17.7920284,48.3133959 16.6752137,47.1965812 C15.558399,46.0797665 15,44.6837691 15,43.008547 C15,41.2934387 15.558399,39.9074127 16.6752137,38.8504274 C17.7920284,37.793442 19.168083,37.2649573 20.8034188,37.2649573 C22.4387546,37.2649573 23.8148092,37.793442 24.9316239,38.8504274 C26.0484386,39.9074127 26.6068376,41.2934387 26.6068376,43.008547 C26.6068376,44.6837691 26.0484386,46.0797665 24.9316239,47.1965812 C23.8148092,48.3133959 22.4387546,48.8717949 20.8034188,48.8717949 Z M40.4871795,60 C38.0940051,56.3703522 36.2492942,52.1624171 34.9529915,47.3760684 C33.6566887,42.5897197 33.008547,37.4644148 33.008547,32 C33.008547,26.5355852 33.6566887,21.4003089 34.9529915,16.5940171 C36.2492942,11.7877253 38.0940051,7.58976154 40.4871795,4 L49.4017094,4 C46.8888763,8.42737256 45.0541368,12.9244786 43.8974359,17.491453 C42.740735,22.0584274 42.1623932,26.8945614 42.1623932,32 C42.1623932,37.1054386 42.740735,41.9415726 43.8974359,46.508547 C45.0541368,51.0755214 46.8888763,55.5726274 49.4017094,60 L40.4871795,60 Z" id=":(" fill="#D0021B"></path>
            </g>
        </g>
    </g>
</svg>